<svg viewBox="0 0 715.44 444.24" xmlns="http://www.w3.org/2000/svg"><path d="m564 393h-435.09c0-120.15 97.4-217.54 217.54-217.54s217.55 97.37 217.55 217.54z" fill="#c98047"/><path d="m538.77 393h-384.62a217.63 217.63 0 0 1 384.62 0z" fill="#dcb63c"/><path d="m472.28 393h-251.65a217.63 217.63 0 0 1 251.65 0z" fill="#efdab2"/><g fill="none" stroke-miterlimit="10" stroke-width="3"><path d="m98.43 422.81h496.06" stroke="#d3bca1"/><path d="m169.29 432.77h354.33" stroke="#d3bca1"/><path d="m208.85 442.74h283.46" stroke="#d3bca1"/><path d="m234.11 174.38-87.24-151.1" stroke="#dcb63c"/><path d="m147.16 253.92-146.41-84.53" stroke="#dcb63c"/><path d="m559.06.75-100.25 173.64" stroke="#dcb63c"/><path d="m714.69 156.39-168.93 97.53" stroke="#dcb63c"/><path d="m346.46 145.62v-88.54" stroke="#c98047"/><path d="m658.27 368.89h-69.15" stroke="#c98047"/><path d="m566.94 148.38-60.27 60.27" stroke="#c98047"/><path d="m186.23 208.64-60.26-60.26" stroke="#c98047"/><path d="m103.79 368.87h-69.14" stroke="#c98047"/></g></svg>