<svg viewBox="0 0 341.71 393.2" xmlns="http://www.w3.org/2000/svg"><path d="m341.71 379a306.48 306.48 0 0 1 -92.91 14.2c-68.33 0-130.23-21.76-175.18-57-45.46-35.62-73.62-85.01-73.62-139.6a158.32 158.32 0 0 1 7.31-47.5c26.88-85.63 124.8-149.1 241.49-149.1a306.48 306.48 0 0 1 92.91 14.17c-50.94 16.21-93.52 45.36-121.24 82.29-22 29.34-34.65 63.57-34.65 100.14 0 4.88.23 9.73.66 14.52 7.06 76.31 69.24 140.53 155.23 167.88z" fill="#a7b1b7"/><path d="m341.71 379a306.48 306.48 0 0 1 -92.91 14.2c-68.33 0-130.23-21.76-175.18-57-45.46-35.62-73.62-85.01-73.62-139.6a158.32 158.32 0 0 1 7.31-47.5c44.46-33.82 106.51-54.82 175.15-54.82a329.13 329.13 0 0 1 38 2.18c-22 29.34-34.65 63.57-34.65 100.14 0 4.88.23 9.73.66 14.52 7.07 76.31 69.25 140.53 155.24 167.88z" fill="#859299"/><path d="m341.71 379a306.48 306.48 0 0 1 -92.91 14.2c-68.33 0-130.23-21.76-175.18-57 1-2.66 2-5.34 3.08-8 21.48-52.39 62.39-93.86 109.78-117.07 7.06 76.3 69.24 140.52 155.23 167.87z" fill="#7a7f82"/></svg>