<svg viewBox="0 0 822.2 568.13" xmlns="http://www.w3.org/2000/svg"><path d="m626.59 411.1h-431c1.06-5.87 2.37-11.65 3.89-17.35q.66-2.47 1.39-4.92a216.32 216.32 0 0 1 20.51-47.91 219.93 219.93 0 0 1 80.17-80.17 218.92 218.92 0 0 1 219.06 0 219.93 219.93 0 0 1 80.17 80.17 216.32 216.32 0 0 1 20.51 47.91q.74 2.44 1.39 4.92c1.54 5.7 2.85 11.48 3.91 17.35z" fill="#e5c7aa"/><path d="m626.59 411.1h-431c1.06-5.87 2.37-11.65 3.89-17.35q.66-2.47 1.39-4.92 4.85-5.41 10-10.56a283.68 283.68 0 0 1 58.61-45 280.46 280.46 0 0 1 68.29-28.31 285.42 285.42 0 0 1 146.58 0 280.46 280.46 0 0 1 68.29 28.31 283.68 283.68 0 0 1 58.61 45q5.16 5.14 10 10.56.74 2.44 1.39 4.92c1.58 5.7 2.89 11.48 3.95 17.35z" fill="#c98047"/><path d="m481.65 411.1h-141.1q6.82-2.31 13.85-4.19a220.63 220.63 0 0 1 113.4 0q7.02 1.88 13.85 4.19z" fill="#98553a"/><g fill="none" stroke-miterlimit="10" stroke-width="3"><path d="m722.91 411.1h-62.37" stroke="#c98047"/><path d="m821.81 301.05-169.71 45.47" stroke="#e5c7aa"/><path d="m711.76 110.44-124.28 124.28" stroke="#e5c7aa"/><path d="m521.15.39-45.47 169.7" stroke="#e5c7aa"/><path d="m346.52 170.09-45.47-169.7" stroke="#e5c7aa"/><path d="m234.72 234.72-124.28-124.28" stroke="#e5c7aa"/><path d="m170.1 346.52-169.71-45.47" stroke="#e5c7aa"/><path d="m681.14 255.19-53.98 31.17" stroke="#c98047"/><path d="m567.01 141.06-31.17 53.98" stroke="#c98047"/><path d="m411.1 161.65v-62.37" stroke="#c98047"/><path d="m286.36 195.04-31.17-53.98" stroke="#c98047"/><path d="m195.04 286.36-53.98-31.17" stroke="#c98047"/><path d="m161.66 411.1h-62.37" stroke="#c98047"/><path d="m234.72 451.44h333.28a19.45 19.45 0 0 1 19.45 19.45 19.44 19.44 0 0 1 -19.45 19.44h-233.88a10.34 10.34 0 0 0 -10.34 10.34 10.34 10.34 0 0 0 10.34 10.33h36.75a57.13 57.13 0 0 1 57.13 57.13" stroke="#98553a"/></g></svg>