<svg id="Layer_1" data-name="Layer 1" xmlns="http://www.w3.org/2000/svg" viewBox="0 0 341.71 393.2"><defs><style>.cls-1{fill:#a7b1b7;}.cls-2{fill:#859299;}.cls-3{fill:#7a7f82;}</style></defs><path class="cls-1" d="M341.71,379A306.48,306.48,0,0,1,248.8,393.2c-68.33,0-130.23-21.76-175.18-57C28.16,300.58,0,251.19,0,196.6a158.32,158.32,0,0,1,7.31-47.5C34.19,63.47,132.11,0,248.8,0a306.48,306.48,0,0,1,92.91,14.17c-50.94,16.21-93.52,45.36-121.24,82.29-22,29.34-34.65,63.57-34.65,100.14,0,4.88.23,9.73.66,14.52C193.54,287.43,255.72,351.65,341.71,379Z"/><path class="cls-2" d="M341.71,379A306.48,306.48,0,0,1,248.8,393.2c-68.33,0-130.23-21.76-175.18-57C28.16,300.58,0,251.19,0,196.6a158.32,158.32,0,0,1,7.31-47.5c44.46-33.82,106.51-54.82,175.15-54.82a329.13,329.13,0,0,1,38,2.18c-22,29.34-34.65,63.57-34.65,100.14,0,4.88.23,9.73.66,14.52C193.54,287.43,255.72,351.65,341.71,379Z"/><path class="cls-3" d="M341.71,379A306.48,306.48,0,0,1,248.8,393.2c-68.33,0-130.23-21.76-175.18-57,1-2.66,2-5.34,3.08-8,21.48-52.39,62.39-93.86,109.78-117.07C193.54,287.43,255.72,351.65,341.71,379Z"/></svg>