<svg id="Layer_1" data-name="Layer 1" xmlns="http://www.w3.org/2000/svg" viewBox="0 0 822.2 568.13"><defs><style>.cls-1{fill:#e5c7aa;}.cls-2{fill:#c98047;}.cls-3{fill:#98553a;}.cls-4,.cls-5,.cls-6{fill:none;stroke-miterlimit:10;stroke-width:3px;}.cls-4{stroke:#c98047;}.cls-5{stroke:#e5c7aa;}.cls-6{stroke:#98553a;}</style></defs><path class="cls-1" d="M626.59,411.1h-431c1.06-5.87,2.37-11.65,3.89-17.35q.66-2.47,1.39-4.92a216.32,216.32,0,0,1,20.51-47.91,219.93,219.93,0,0,1,80.17-80.17,218.92,218.92,0,0,1,219.06,0,219.93,219.93,0,0,1,80.17,80.17,216.32,216.32,0,0,1,20.51,47.91q.74,2.44,1.39,4.92C624.22,399.45,625.53,405.23,626.59,411.1Z"/><path class="cls-2" d="M626.59,411.1h-431c1.06-5.87,2.37-11.65,3.89-17.35q.66-2.47,1.39-4.92,4.85-5.41,10-10.56a283.68,283.68,0,0,1,58.61-45,280.46,280.46,0,0,1,68.29-28.31,285.42,285.42,0,0,1,146.58,0,280.46,280.46,0,0,1,68.29,28.31,283.68,283.68,0,0,1,58.61,45q5.16,5.14,10,10.56.74,2.44,1.39,4.92C624.22,399.45,625.53,405.23,626.59,411.1Z"/><path class="cls-3" d="M481.65,411.1H340.55q6.82-2.31,13.85-4.19a220.63,220.63,0,0,1,113.4,0Q474.82,408.79,481.65,411.1Z"/><line class="cls-4" x1="722.91" y1="411.1" x2="660.54" y2="411.1"/><line class="cls-5" x1="821.81" y1="301.05" x2="652.1" y2="346.52"/><line class="cls-5" x1="711.76" y1="110.44" x2="587.48" y2="234.72"/><line class="cls-5" x1="521.15" y1="0.39" x2="475.68" y2="170.09"/><line class="cls-5" x1="346.52" y1="170.09" x2="301.05" y2="0.39"/><line class="cls-5" x1="234.72" y1="234.72" x2="110.44" y2="110.44"/><line class="cls-5" x1="170.1" y1="346.52" x2="0.39" y2="301.05"/><line class="cls-4" x1="681.14" y1="255.19" x2="627.16" y2="286.36"/><line class="cls-4" x1="567.01" y1="141.06" x2="535.84" y2="195.04"/><line class="cls-4" x1="411.1" y1="161.65" x2="411.1" y2="99.28"/><line class="cls-4" x1="286.36" y1="195.04" x2="255.19" y2="141.06"/><line class="cls-4" x1="195.04" y1="286.36" x2="141.06" y2="255.19"/><line class="cls-4" x1="161.66" y1="411.1" x2="99.29" y2="411.1"/><path class="cls-6" d="M234.72,451.44H568a19.45,19.45,0,0,1,19.45,19.45h0A19.44,19.44,0,0,1,568,490.33H334.12a10.34,10.34,0,0,0-10.34,10.34h0A10.34,10.34,0,0,0,334.12,511h36.75A57.13,57.13,0,0,1,428,568.13h0"/></svg>