<svg id="Layer_1" data-name="Layer 1" xmlns="http://www.w3.org/2000/svg" viewBox="0 0 715.44 444.24"><defs><style>.cls-1{fill:#c98047;}.cls-2{fill:#dcb63c;}.cls-3{fill:#efdab2;}.cls-4,.cls-5,.cls-6{fill:none;stroke-miterlimit:10;stroke-width:3px;}.cls-4{stroke:#d3bca1;}.cls-5{stroke:#dcb63c;}.cls-6{stroke:#c98047;}</style></defs><path class="cls-1" d="M564,393H128.91c0-120.15,97.4-217.54,217.54-217.54S564,272.83,564,393Z"/><path class="cls-2" d="M538.77,393H154.15a217.63,217.63,0,0,1,384.62,0Z"/><path class="cls-3" d="M472.28,393H220.63a217.63,217.63,0,0,1,251.65,0Z"/><line class="cls-4" x1="98.43" y1="422.81" x2="594.49" y2="422.81"/><line class="cls-4" x1="169.29" y1="432.77" x2="523.62" y2="432.77"/><line class="cls-4" x1="208.85" y1="442.74" x2="492.31" y2="442.74"/><line class="cls-5" x1="234.11" y1="174.38" x2="146.87" y2="23.28"/><line class="cls-5" x1="147.16" y1="253.92" x2="0.75" y2="169.39"/><line class="cls-5" x1="559.06" y1="0.75" x2="458.81" y2="174.39"/><line class="cls-5" x1="714.69" y1="156.39" x2="545.76" y2="253.92"/><line class="cls-6" x1="346.46" y1="145.62" x2="346.46" y2="57.08"/><line class="cls-6" x1="658.27" y1="368.89" x2="589.12" y2="368.89"/><line class="cls-6" x1="566.94" y1="148.38" x2="506.67" y2="208.65"/><line class="cls-6" x1="186.23" y1="208.64" x2="125.97" y2="148.38"/><line class="cls-6" x1="103.79" y1="368.87" x2="34.65" y2="368.87"/></svg>